<?xml version="1.0" encoding="iso-8859-1"?>
<!-- Uploaded to: SVG Repo, www.svgrepo.com, Generator: SVG Repo Mixer Tools -->
<!DOCTYPE svg PUBLIC "-//W3C//DTD SVG 1.1//EN" "http://www.w3.org/Graphics/SVG/1.1/DTD/svg11.dtd">
<svg fill="#000000" height="800px" width="800px" version="1.1" id="Capa_1" xmlns="http://www.w3.org/2000/svg" xmlns:xlink="http://www.w3.org/1999/xlink" 
	 viewBox="0 0 459.361 459.361" xml:space="preserve">
<g id="XMLID_461_">
	<circle id="XMLID_464_" cx="227.946" cy="46.252" r="46.247"/>
	<circle id="XMLID_857_" cx="385.562" cy="164.571" r="42.099"/>
	<path id="XMLID_858_" d="M328.985,204.187l-76.626-33.059l-68.951-57.87l40.402,20.947c-0.493-9.577-5.369-18.803-13.986-24.492
		L163.33,79.018c-14.399-9.506-33.778-5.539-43.284,8.86L38.531,211.35c-4.588,7.736-9.831,19.307-4.743,29.261l43.138,80.51
		L51.344,429.333c-3.101,13.117,5.019,26.266,18.136,29.367c13.117,3.101,26.266-5.021,29.367-18.137l27.708-117.207
		c1.37-5.796,0.574-11.892-2.239-17.142l-19.442-36.284l55.903,48.826l44.594,124.426c4.55,12.695,18.528,19.288,31.209,14.741
		c12.689-4.548,19.289-18.52,14.741-31.21L204.67,296.545c-1.351-3.77-3.609-7.149-6.575-9.841l-42.328-38.407l36.79-55.727
		l-36.089-47.215l71.301,59.843c1.559,1.309,3.301,2.383,5.169,3.19l79.444,34.275c10.625,4.585,22.955-0.313,27.54-10.938
		C344.507,221.101,339.609,208.771,328.985,204.187z"/>
</g>
</svg>